<?xml version="1.0" encoding="utf-8"?>
<!-- Generator: Adobe Illustrator 24.0.1, SVG Export Plug-In . SVG Version: 6.00 Build 0)  -->
<svg version="1.1" id="Слой_1" xmlns="http://www.w3.org/2000/svg" xmlns:xlink="http://www.w3.org/1999/xlink" x="0px" y="0px"
	 viewBox="0 0 12 12" style="enable-background:new 0 0 12 12;" xml:space="preserve">
<style type="text/css">
	.st0{fill-rule:evenodd;clip-rule:evenodd;fill:#FFFFFF;}
</style>
<path class="st0" d="M8.3,10.5c0,0,0.8,0,0.8-0.8s-0.8-3-4.5-3S0,9,0,9.8s0.8,0.8,0.8,0.8H8.3z M0.8,9.8L0.8,9.8L0.8,9.8z M0.8,9.8
	h7.5c0,0,0,0,0,0l0,0c0-0.2-0.1-0.7-0.6-1.2c-0.5-0.5-1.4-1-3.1-1c-1.7,0-2.6,0.5-3.1,1C0.9,9,0.8,9.6,0.8,9.8
	C0.8,9.7,0.8,9.7,0.8,9.8z M8.2,9.8L8.2,9.8L8.2,9.8z M4.5,5.3C5.3,5.3,6,4.6,6,3.8S5.3,2.3,4.5,2.3S3,2.9,3,3.8S3.7,5.3,4.5,5.3z
	 M6.8,3.8C6.8,5,5.7,6,4.5,6S2.3,5,2.3,3.8s1-2.3,2.3-2.3S6.8,2.5,6.8,3.8z M10.1,3.8c0.2,0,0.4,0.2,0.4,0.4v1.5
	c0,0.2-0.2,0.4-0.4,0.4H8.6C8.4,6,8.3,5.8,8.3,5.6s0.2-0.4,0.4-0.4h1.1V4.1C9.8,3.9,9.9,3.8,10.1,3.8z"/>
<path class="st0" d="M9.8,5.6c0-0.2,0.2-0.4,0.4-0.4h1.5c0.2,0,0.4,0.2,0.4,0.4S11.8,6,11.6,6h-1.1v1.1c0,0.2-0.2,0.4-0.4,0.4
	S9.8,7.3,9.8,7.1V5.6z"/>
</svg>
